<?xml version="1.0" encoding="UTF-8" standalone="no" ?>
<!DOCTYPE svg PUBLIC "-//W3C//DTD SVG 1.1//EN" "http://www.w3.org/Graphics/SVG/1.1/DTD/svg11.dtd">
<svg xmlns="http://www.w3.org/2000/svg" xmlns:xlink="http://www.w3.org/1999/xlink" version="1.1" width="640" height="480" viewBox="0 0 640 480" xml:space="preserve">
<desc>Created with Fabric.js 3.6.6</desc>
<defs>
</defs>
<g transform="matrix(0.66 0 0 0.68 149.8 234.2)"  >
<g style=""   >
		<g transform="matrix(1 0 0 1 -490 -512.22)"  >
<rect style="stroke: none; stroke-width: 1; stroke-dasharray: none; stroke-linecap: butt; stroke-dashoffset: 0; stroke-linejoin: miter; stroke-miterlimit: 4; fill: rgb(255,255,255); fill-opacity: 0; fill-rule: nonzero; opacity: 1;"  x="-50" y="-50" rx="0" ry="0" width="100" height="100" />
</g>
		<g transform="matrix(1 0 0 1 0 -2.22)" id="5.5e+244"  >
<rect style="stroke: none; stroke-width: 1; stroke-dasharray: none; stroke-linecap: butt; stroke-dashoffset: 0; stroke-linejoin: miter; stroke-miterlimit: 4; fill: rgb(255,255,255); fill-rule: nonzero; opacity: 1; visibility: hidden;" vector-effect="non-scaling-stroke"  x="-540" y="-560" rx="0" ry="0" width="1080" height="1120" />
</g>
		<g transform="matrix(6.2 0 0 6.2 0 -2.22)" id="bbeb315c-bd2e-4e0d-9f49-6d844d0c7951"  >
<path style="stroke: rgb(0,0,0); stroke-width: 0; stroke-dasharray: none; stroke-linecap: butt; stroke-dashoffset: 0; stroke-linejoin: miter; stroke-miterlimit: 4; fill: rgb(38,110,12); fill-rule: nonzero; opacity: 1;" vector-effect="non-scaling-stroke"  transform=" translate(-50, -50)" d="M 63.019 21.854 L 70.30199999999999 21.854 C 71.288 21.854 72.13499999999999 22.698999999999998 72.13499999999999 23.686999999999998 L 72.13499999999999 35.858 L 86.28099999999999 45.538 C 86.987 46.007 87.175 46.94799999999999 86.70299999999999 47.651999999999994 C 86.234 48.31099999999999 85.29299999999999 48.498999999999995 84.58899999999998 48.028999999999996 L 50.002 24.298 L 15.365 48.03 C 14.708 48.5 13.768 48.357 13.299 47.606 C 12.828 46.948 13.016 46.008 13.674 45.539 L 48.825 21.477 C 49.06 21.148 49.482 20.96 49.905 20.96 C 50.376 20.913 50.845 21.101 51.175000000000004 21.477 L 61.136 28.291 L 61.136 23.687 C 61.137 22.7 61.983 21.854 63.019 21.854 z M 24.202 45.445 L 49.907 27.634 L 75.613 45.445 L 75.613 75.05199999999999 C 75.613 77.261 73.828 79.04599999999999 71.619 79.04599999999999 L 56.814 79.04599999999999 L 56.814 53.763 L 43.798 53.763 L 43.798 79.04599999999999 L 28.196 79.04599999999999 C 25.986 79.04599999999999 24.202 77.261 24.202 75.05199999999999 L 24.202 45.445 z" stroke-linecap="round" />
</g>
</g>
</g>
<g transform="matrix(1 0 0 1 436 168.52)" style=""  >
		<text xml:space="preserve" font-family="'Open Sans', sans-serif" font-size="18" font-style="normal" font-weight="normal" style="stroke: none; stroke-width: 1; stroke-dasharray: none; stroke-linecap: butt; stroke-dashoffset: 0; stroke-linejoin: miter; stroke-miterlimit: 4; fill: rgb(0,0,0); fill-rule: nonzero; opacity: 1; white-space: pre;" ><tspan x="-167.5" y="26.7" style="stroke-width: 1; font-family: 'Open Sans', sans-serif; font-size: 85px; font-style: normal; font-weight: bold; fill: rgb(51,116,51); ">eKhaya</tspan></text>
</g>
<g transform="matrix(1 0 0 1 469.5 238.67)" style=""  >
		<text xml:space="preserve" font-family="'Open Sans', sans-serif" font-size="18" font-style="normal" font-weight="bold" style="stroke: none; stroke-width: 1; stroke-dasharray: none; stroke-linecap: butt; stroke-dashoffset: 0; stroke-linejoin: miter; stroke-miterlimit: 4; fill: rgb(24,103,35); fill-rule: nonzero; opacity: 1; white-space: pre;" ><tspan x="-172" y="5.65" style="stroke-width: 1; font-family: 'Open Sans', sans-serif; font-style: normal; ">Your new home is only one click away</tspan></text>
</g>
</svg>